<svg xmlns="http://www.w3.org/2000/svg" viewBox="0 0 760 440" role="img">
<title>Pairwise agreement and private discovery across bounded source graphs</title>
<desc>Exact graph results by latent source count; rings mark the equal-average-agreement counterexample.</desc>
<rect width="760" height="440" fill="white"/>
<line x1="80" y1="370" x2="730" y2="370" stroke="#222"/>
<line x1="80" y1="44" x2="80" y2="370" stroke="#222"/>
<text x="80.0" y="394" text-anchor="middle" font-family="system-ui" font-size="12">0.583</text>
<line x1="80" y1="370.0" x2="730" y2="370.0" stroke="#e2e2e2"/>
<text x="70" y="374.0" text-anchor="end" font-family="system-ui" font-size="12">0.667</text>
<text x="242.5" y="394" text-anchor="middle" font-family="system-ui" font-size="12">0.688</text>
<line x1="80" y1="288.5" x2="730" y2="288.5" stroke="#e2e2e2"/>
<text x="70" y="292.5" text-anchor="end" font-family="system-ui" font-size="12">0.741</text>
<text x="405.0" y="394" text-anchor="middle" font-family="system-ui" font-size="12">0.792</text>
<line x1="80" y1="207.0" x2="730" y2="207.0" stroke="#e2e2e2"/>
<text x="70" y="211.0" text-anchor="end" font-family="system-ui" font-size="12">0.815</text>
<text x="567.5" y="394" text-anchor="middle" font-family="system-ui" font-size="12">0.896</text>
<line x1="80" y1="125.5" x2="730" y2="125.5" stroke="#e2e2e2"/>
<text x="70" y="129.5" text-anchor="end" font-family="system-ui" font-size="12">0.889</text>
<text x="730.0" y="394" text-anchor="middle" font-family="system-ui" font-size="12">1.000</text>
<line x1="80" y1="44.0" x2="730" y2="44.0" stroke="#e2e2e2"/>
<text x="70" y="48.0" text-anchor="end" font-family="system-ui" font-size="12">0.963</text>
<text x="405.0" y="420" text-anchor="middle" font-family="system-ui" font-size="14">mean pairwise scalar-report agreement</text>
<text transform="translate(21 207.0) rotate(-90)" text-anchor="middle" font-family="system-ui" font-size="14">private discovery</text>
<circle cx="730.0" cy="370.0" r="4" fill="#6b5fb5" fill-opacity="0.76" stroke="#111" stroke-width="1"/>
<circle cx="340.0" cy="125.5" r="7" fill="#087d26" fill-opacity="0.76" stroke="#111" stroke-width="3"/>
<circle cx="535.0" cy="247.7" r="4" fill="#087d26" fill-opacity="0.76" stroke="#111" stroke-width="1"/>
<circle cx="210.0" cy="125.5" r="4" fill="#087d26" fill-opacity="0.76" stroke="#111" stroke-width="1"/>
<circle cx="275.0" cy="125.5" r="4" fill="#087d26" fill-opacity="0.76" stroke="#111" stroke-width="1"/>
<circle cx="405.0" cy="186.6" r="4" fill="#087d26" fill-opacity="0.76" stroke="#111" stroke-width="1"/>
<circle cx="275.0" cy="125.5" r="4" fill="#087d26" fill-opacity="0.76" stroke="#111" stroke-width="1"/>
<circle cx="340.0" cy="156.1" r="7" fill="#087d26" fill-opacity="0.76" stroke="#111" stroke-width="3"/>
<circle cx="340.0" cy="156.1" r="4" fill="#087d26" fill-opacity="0.76" stroke="#111" stroke-width="1"/>
<circle cx="340.0" cy="125.5" r="4" fill="#2a78d6" fill-opacity="0.76" stroke="#111" stroke-width="1"/>
<circle cx="520.6" cy="179.8" r="4" fill="#2a78d6" fill-opacity="0.76" stroke="#111" stroke-width="1"/>
<circle cx="80.0" cy="44.0" r="4" fill="#2a78d6" fill-opacity="0.76" stroke="#111" stroke-width="1"/>
<circle cx="210.0" cy="84.7" r="4" fill="#2a78d6" fill-opacity="0.76" stroke="#111" stroke-width="1"/>
<circle cx="372.5" cy="166.2" r="4" fill="#2a78d6" fill-opacity="0.76" stroke="#111" stroke-width="1"/>
<circle cx="145.0" cy="84.7" r="4" fill="#2a78d6" fill-opacity="0.76" stroke="#111" stroke-width="1"/>
<circle cx="260.6" cy="111.9" r="4" fill="#2a78d6" fill-opacity="0.76" stroke="#111" stroke-width="1"/>
<circle cx="242.5" cy="105.1" r="4" fill="#2a78d6" fill-opacity="0.76" stroke="#111" stroke-width="1"/>
<circle cx="390.6" cy="145.9" r="4" fill="#2a78d6" fill-opacity="0.76" stroke="#111" stroke-width="1"/>
<circle cx="80.0" cy="44.0" r="4" fill="#2a78d6" fill-opacity="0.76" stroke="#111" stroke-width="1"/>
<circle cx="177.5" cy="84.7" r="4" fill="#2a78d6" fill-opacity="0.76" stroke="#111" stroke-width="1"/>
<circle cx="145.0" cy="64.4" r="4" fill="#2a78d6" fill-opacity="0.76" stroke="#111" stroke-width="1"/>
<circle cx="275.0" cy="125.5" r="4" fill="#2a78d6" fill-opacity="0.76" stroke="#111" stroke-width="1"/>
<circle cx="260.6" cy="111.9" r="4" fill="#2a78d6" fill-opacity="0.76" stroke="#111" stroke-width="1"/>
<circle cx="210.0" cy="94.9" r="4" fill="#2a78d6" fill-opacity="0.76" stroke="#111" stroke-width="1"/>
<circle cx="325.6" cy="128.9" r="4" fill="#2a78d6" fill-opacity="0.76" stroke="#111" stroke-width="1"/>
<circle cx="145.0" cy="64.4" r="4" fill="#2a78d6" fill-opacity="0.76" stroke="#111" stroke-width="1"/>
<circle cx="242.5" cy="110.2" r="4" fill="#2a78d6" fill-opacity="0.76" stroke="#111" stroke-width="1"/>
<circle cx="325.6" cy="128.9" r="4" fill="#2a78d6" fill-opacity="0.76" stroke="#111" stroke-width="1"/>
<circle cx="145.0" cy="84.7" r="4" fill="#2a78d6" fill-opacity="0.76" stroke="#111" stroke-width="1"/>
<circle cx="260.6" cy="111.9" r="4" fill="#2a78d6" fill-opacity="0.76" stroke="#111" stroke-width="1"/>
<circle cx="431.5" cy="161.7" r="4" fill="#2a78d6" fill-opacity="0.76" stroke="#111" stroke-width="1"/>
<circle cx="130.6" cy="44.0" r="4" fill="#2a78d6" fill-opacity="0.76" stroke="#111" stroke-width="1"/>
<circle cx="112.5" cy="64.4" r="4" fill="#2a78d6" fill-opacity="0.76" stroke="#111" stroke-width="1"/>
<circle cx="195.6" cy="78.0" r="4" fill="#2a78d6" fill-opacity="0.76" stroke="#111" stroke-width="1"/>
<circle cx="177.5" cy="84.7" r="4" fill="#2a78d6" fill-opacity="0.76" stroke="#111" stroke-width="1"/>
<circle cx="293.1" cy="111.9" r="4" fill="#2a78d6" fill-opacity="0.76" stroke="#111" stroke-width="1"/>
<circle cx="301.5" cy="102.9" r="4" fill="#2a78d6" fill-opacity="0.76" stroke="#111" stroke-width="1"/>
<circle cx="145.0" cy="74.6" r="4" fill="#2a78d6" fill-opacity="0.76" stroke="#111" stroke-width="1"/>
<circle cx="228.1" cy="94.9" r="4" fill="#2a78d6" fill-opacity="0.76" stroke="#111" stroke-width="1"/>
<circle cx="366.5" cy="132.3" r="4" fill="#2a78d6" fill-opacity="0.76" stroke="#111" stroke-width="1"/>
<circle cx="210.0" cy="100.0" r="4" fill="#2a78d6" fill-opacity="0.76" stroke="#111" stroke-width="1"/>
<circle cx="195.6" cy="78.0" r="4" fill="#2a78d6" fill-opacity="0.76" stroke="#111" stroke-width="1"/>
<circle cx="177.5" cy="84.7" r="4" fill="#2a78d6" fill-opacity="0.76" stroke="#111" stroke-width="1"/>
<circle cx="260.6" cy="103.4" r="4" fill="#2a78d6" fill-opacity="0.76" stroke="#111" stroke-width="1"/>
<circle cx="366.5" cy="132.3" r="4" fill="#2a78d6" fill-opacity="0.76" stroke="#111" stroke-width="1"/>
<circle cx="301.5" cy="102.9" r="4" fill="#2a78d6" fill-opacity="0.76" stroke="#111" stroke-width="1"/>
<circle cx="462.8" cy="149.6" r="4" fill="#2a78d6" fill-opacity="0.76" stroke="#111" stroke-width="1"/>
<circle cx="228.1" cy="94.9" r="4" fill="#2a78d6" fill-opacity="0.76" stroke="#111" stroke-width="1"/>
<circle cx="334.0" cy="117.6" r="4" fill="#2a78d6" fill-opacity="0.76" stroke="#111" stroke-width="1"/>
<circle cx="462.8" cy="149.6" r="4" fill="#2a78d6" fill-opacity="0.76" stroke="#111" stroke-width="1"/>
<circle cx="614.4" cy="190.4" r="4" fill="#2a78d6" fill-opacity="0.76" stroke="#111" stroke-width="1"/>
<circle cx="88" cy="20" r="4" fill="#6b5fb5"/>
<text x="98" y="24" font-family="system-ui" font-size="12">K=1</text>
<circle cx="88" cy="38" r="4" fill="#087d26"/>
<text x="98" y="42" font-family="system-ui" font-size="12">K=2</text>
<circle cx="88" cy="56" r="4" fill="#2a78d6"/>
<text x="98" y="60" font-family="system-ui" font-size="12">K=3</text>
</svg>
